{"title":"Warren G - Take a Look Over Your Shoulder (Reality) - Custom Rem","uid":7630617,"size":1207699667,"categoryP":"audio","categoryS":"flac","magnet":"?xt=urn:btih:528cbfff3df39cac53fd87b1cc271fb85f910a21&amp;dn=Warren+G+-+Take+a+Look+Over+Your+Shoulder+%28Reality%29+-+Custom+Rem&amp;tr=udp%3A%2F%2Ftracker.openbittorrent.com%3A80&amp;tr=udp%3A%2F%2Fopen.demonii.com%3A1337&amp;tr=udp%3A%2F%2Ftracker.coppersurfer.tk%3A6969&amp;tr=udp%3A%2F%2Fexodus.desync.com%3A6969","seeders":1,"leechers":1,"uploader":"beavis39","files":-1,"time":1347525531,"description":"Warren G - Take a Look Over Your Shoulder (Reality) - Custom Remaster by MC Lurken\n\n\n\n1 - Intro\n2 - Annie Mae\n3 - Smokin' Me Out\n4 - Reverend Eazy Dick\n5 - Reality\n6 - Interlude\n7 - Young Fun\n8 - What We Go Through\n9 - We Brings Heat\n10 - Can You Feel It\n11 - Transformers\n12 - Reel Tight Intro\n13 - Relax Ya Mind\n14 - To All D.J.'s\n15 - Back Up\n16 - What's Love Got To Do With It (Ft. Adina Howard)\n17 - I Shot The Sheriff\n18 - What's Love Got To Do With It (Remix)\n\n\n\nSetup:\n-HP G72-250US\n-Intel Core i3 M350 2.27GHz\n-8Gb PC3-10700 RAM\n-Win7 64-bit SP1\n-SB X-Fi Surround 5.1\n\nProcess:\n-Original 16-bit/44.1kHz files joined in Wavelab 6\n-Remove DC offset and save as 64-bit float/44.1kHz\n-Resample to 384kHz in Wavelab w/crystal resampler ultra(slow) relax background priority\n-Create new 64-bit/384kHz master recording in Wavelab (1.72db recording gain)\n\nAs reported in Wavelab:\n-Original 16-bit/44.1kHz: Apparent Bit Resolution = 16, Peak = -1.716db\n-With DC Offset Removed: Apparent Bit Resolution = 20, Peak = -1.723db\n-64-bit/384kHz Recording: Apparent Bit Resolution = 39, Peak = 0db\n\n-Resample new 64-bit/384kHz master recording to 64-bit/96kHz in Wavelab w/crystal resampler ultra(slow) relax background priority\n-Apply MBIT+ 24-bit Dither in Wavelab w/Izotope Ozone 5 VST Plugin\n-Flac encode level 0 with Trader's Little Helper\n-Tag and pic with xrecode II\n\n\nfoobar2000 1.1.14a / Dynamic Range Meter 1.1.1\nlog date: 2012-09-12 13:49:33\n\n--------------------------------------------------------------------------------\nAnalyzed: ? / ?\n--------------------------------------------------------------------------------\n\nDR         Peak         RMS     Duration Track\n--------------------------------------------------------------------------------\nDR15    -2.82 dB   -20.69 dB      0:31 ?-01 - Intro\nDR8      0.00 dB   -10.01 dB      3:53 ?-02 - Annie Mae\nDR10     0.00 dB   -11.48 dB      3:41 ?-03 - Smokin' Me Out\nDR13    -0.81 dB   -16.69 dB      0:30 ?-04 - Reverend Eazy Dick\nDR9     -0.32 dB   -11.02 dB      3:31 ?-05 - Reality\nDR10    -3.88 dB   -19.77 dB      0:17 ?-06 - Interlude\nDR10    -0.01 dB   -11.58 dB      3:37 ?-07 - Young Fun\nDR7     -0.03 dB    -8.99 dB      3:41 ?-08 - What We Go Through\nDR10    -0.27 dB   -11.26 dB      3:47 ?-09 - We Brings Heat\nDR7     -0.33 dB    -8.42 dB      3:21 ?-10 - Can You Feel It\nDR8     -0.14 dB    -8.98 dB      3:01 ?-11 - Transformers\nDR8     -1.04 dB   -11.63 dB      0:21 ?-12 - Reel Tight Intro\nDR8     -0.35 dB    -9.41 dB      3:29 ?-13 - Relax Ya Mind\nDR8     -0.61 dB   -10.61 dB      3:01 ?-14 - To All D.J.'s\nDR8     -0.33 dB   -10.44 dB      3:46 ?-15 - Back Up\nDR8     -0.39 dB   -10.39 dB      4:15 ?-16 - What's Love Got To Do With It\nDR9     -0.49 dB   -10.55 dB      4:07 ?-17 - I Shot The Sheriff\nDR8     -0.63 dB   -10.99 dB      3:54 ?-18 - What's Love Got To Do With It (Remix)\n--------------------------------------------------------------------------------\n\nNumber of tracks:  18\nOfficial DR value: DR9\n\nSamplerate:        96000 Hz\nChannels:          2\nBits per sample:   24\nBitrate:           4608 kbps\nCodec:             PCM\n\n\n\nenjoy :)","torrent":{"xt":"urn:btih:528cbfff3df39cac53fd87b1cc271fb85f910a21","amp;dn":"Warren+G+-+Take+a+Look+Over+Your+Shoulder+%28Reality%29+-+Custom+Rem","amp;tr":["udp%3A%2F%2Ftracker.openbittorrent.com%3A80","udp%3A%2F%2Fopen.demonii.com%3A1337","udp%3A%2F%2Ftracker.coppersurfer.tk%3A6969","udp%3A%2F%2Fexodus.desync.com%3A6969"],"infoHash":"528cbfff3df39cac53fd87b1cc271fb85f910a21","infoHashBuffer":{"type":"Buffer","data":[82,140,191,255,61,243,156,172,83,253,135,177,204,39,31,184,95,145,10,33]},"announce":[],"urlList":[]}}